<?xml version='1.0' encoding='utf-8'?>
<!-- Generator: imaengine 6.0   -->
<svg xmlns:xlink="http://www.w3.org/1999/xlink" xmlns="http://www.w3.org/2000/svg" viewBox="0,0,300,225" style="enable-background:new 0 0 300 225;" version="1.1">
<defs/>
<g id="layer0">
<g transform="matrix(1 0 0 1 0.8379 -4.78074)">
<path d="M137,51.4C125,54.6 104.5,71.1 99,81.9C95.6,88.6 87.7,96.5 81.7,99C75.1,101.9 68,101.3 56,97.1C44.9,93.1 41.9,93.1 38.6,97C33.3,103.3 33.8,114.9 40.4,136.2C42.8,144.3 45.2,152.9 45.5,155.4C45.9,157.9 46.6,159.8 47,159.5C47.8,159 44.9,144.1 43.2,140C40.7,134.1 36.9,119.7 37.4,118.4C37.7,117.6 37.5,117 37,117C36.6,117 36.3,113.6 36.4,109.5C36.8,96.4 42.1,93.2 54.8,98.3C58.1,99.7 61,100.6 61.3,100.4C61.5,100.2 63.4,100.6 65.6,101.3C71.3,103.3 82.9,101.6 87.4,98.1C91.5,94.8 97.5,87.8 100.8,82.2C102.7,79.1 104.5,76.3 104.9,76C105.3,75.7 106.3,74.5 107.1,73.3C109.9,69.2 122.7,59.3 129.6,55.9C135.4,53.1 137.7,52.5 144.5,52.3C148.9,52.2 154.1,52.6 156,53.2C157.9,53.9 159.7,54.4 160,54.5C160.3,54.5 161.4,55.1 162.5,55.7C163.6,56.3 164.8,56.7 165.2,56.7C165.6,56.6 166.9,57.3 168,58.2C169.1,59.2 170.4,60 170.8,60C172.2,60 181,68.2 181,69.5C181,70.3 181.8,71.1 182.8,71.4C183.7,71.7 186.3,74.7 188.5,78C190.7,81.3 192.8,84 193.3,84C193.7,84 194,84.7 194,85.5C194,86.3 194.4,87 195,87C195.5,87 196.6,88.3 197.4,89.8C198.2,91.4 201.6,95.4 204.9,98.7C210.2,104.1 212.7,105.8 222.2,110.7C225.6,112.4 237.4,112.7 241.4,111.1C243,110.5 244.5,110.2 244.8,110.4C245,110.7 245.9,110.2 246.7,109.4C247.5,108.6 248.5,108.2 249,108.5C249.5,108.8 250.1,108.6 250.5,108C252.1,105.5 258,108.8 258,112.2C258,113.2 258.5,114 259,114C261,114 260.1,128.3 257.4,138C254,150.3 253.9,150.7 253.4,156C253.1,159.5 253.4,158.8 254.9,153C255.9,148.9 257.9,141 259.4,135.5C260.8,130 262,123.9 262,122C262,113.7 257.9,106 253.5,106C252.3,106 248,107.2 243.9,108.6C226.9,114.4 212.3,108.1 198.3,88.7C182.1,66.5 175.9,60.2 164.5,54.9C161.2,53.3 155.4,51.6 151.5,51C143,49.8 142.6,49.8 137,51.4L137,51.4Z" fill="#E0B76F"/>
<path d="M208.9,67.3C204.4,70.7 203.9,77.1 207.4,84.5C210.5,91.1 220.7,100.4 227.6,103C233.4,105.2 240,100.3 240,93.8C240,90.4 225.6,69.4 222.1,67.5C218.5,65.7 211.1,65.6 208.9,67.3L208.9,67.3ZM220,68.7C223.1,69.9 226.6,73.9 231.7,81.6C232.4,82.7 234.1,85.3 235.6,87.5C239.2,92.9 239.3,95.5 236,99C232.5,102.7 229.3,102.8 224,99.5C213.9,93.1 207.5,84.8 206.5,76.9C206,73.3 206.4,72.4 208.9,69.9C212.2,66.8 214.8,66.5 220,68.7L220,68.7Z" fill="#E0B76F"/>
<path d="M144,111.9L130.5,112.5L120.5,118.2C111.8,123.1 108.8,124.2 98.1,126.4C87.1,128.8 82,130.3 82,131.4C82,131.9 93.9,129.2 95,128.5C95.4,128.2 97.9,127.9 100.5,127.8C103.1,127.7 105.8,127.1 106.5,126.3C107.5,125.3 112.4,125 127.1,125L146.3,125L152.6,118.2C159.2,111.3 159.5,110.9 158.3,111.2C157.8,111.3 151.4,111.6 144,111.9L144,111.9ZM153,114.6C153,114.8 151.4,116.8 149.4,119L145.8,123L133.4,123C125.2,123 120.9,122.6 120.4,121.8C120,121.1 120.1,121 120.8,121.4C121.5,121.8 122.8,121.6 123.7,121.1C125.1,120.3 125.2,120 124,120C121.9,119.9 125.6,117.8 128.4,117.5C129.6,117.4 131,117.2 131.5,117.1C132.1,117 131.8,116.5 131,115.9C129.8,115 129.9,114.9 131.6,115.3C132.8,115.5 134.4,115.4 135.1,114.9C136.4,114.1 153,113.9 153,114.6L153,114.6Z" fill="#E0B76F"/>
<path d="M160.9,113.2C160.1,113.9 157.7,116.6 155.6,119.2L151.9,124L154.4,124C156.1,124 156.8,123.6 156.4,122.7C155.5,120.2 158.4,118.9 162.1,120.1C166.4,121.6 166.2,121.4 165.4,123.4C164.9,124.6 163.4,125 158.4,125C154.9,125 152,125.4 152,125.8C152,126.2 165.9,126.4 183,126.2C210.9,125.8 214,125.9 214.6,127.4C214.9,128.3 216.1,129 217.2,129C218.2,129 218.8,129.4 218.5,130C217.6,131.4 212.4,131.2 211.2,129.7C210.5,128.9 207.6,128.5 202.8,128.6C198.8,128.7 183.3,128.8 168.4,129C152.4,129.1 140.8,129.6 139.9,130.2C139,130.8 150.5,131 174.8,130.6C204.1,130.1 211.1,130.2 210.8,131.2C210.4,132.2 201.5,132.5 168.4,132.5C145.4,132.5 129.3,132.6 132.8,132.8C136.4,133 138.8,133.5 138.5,134C138.1,134.6 138.9,135 140.2,135.1C149.3,135.4 186.1,135.1 193.3,134.7C198.1,134.3 201.9,134.4 201.6,134.8C201.4,135.2 203.4,135.5 206,135.5C208.6,135.5 210.6,135.2 210.4,134.9C209.7,133.7 212.5,132.2 216.3,131.8C220.6,131.3 222.6,133.4 221.5,137.1C221.1,138.2 221.4,139.7 222,140.5C224,142.9 222.3,149.5 219.4,150.8C217.1,151.9 217,151.8 217,148.9C217,143.4 213,137.9 208.1,136.7C204.9,135.9 199.5,138.2 197.5,141.4C196.6,142.7 195.5,145.9 195.2,148.4L194.5,153L173.8,153.6C162.4,153.9 152.2,153.9 151.2,153.6C149.8,153.1 149.4,152.3 149.7,150.6C150,149.3 149.3,146.1 148.1,143.6C144.6,135.5 136.7,134.2 131,140.7C128.6,143.4 128,145 128,148.8L128,153.5L107.7,153.5C81.5,153.5 76,153.2 76,152C76,151.4 85.1,150.9 99.8,150.7L123.5,150.5L99.8,150.2C86.7,150.1 76,149.7 76,149.2C76,148.8 80.8,148.6 86.7,148.8C94.9,149 97.1,148.8 95.7,148C94.7,147.3 90.6,147 86,147.2C78.3,147.5 78,147.4 78,145.2C78,144 77.6,143 77,143C76.5,143 76,142.3 76,141.4C76,140 76.2,140.1 77.7,141.5C80.1,143.9 97.9,143.3 100.8,140.7C102.3,139.3 104.6,139 112.8,139L123,139L124.4,135.7C125.1,134 125.6,132.3 125.5,132C125.3,131.7 114.7,131.9 101.8,132.3C83.6,133 78.2,133.5 77,134.6C75.2,136.3 73.9,152.5 75.5,154.1C76,154.6 78.8,155 81.7,155C85.6,155 87,155.4 87,156.4C87,157.2 88.4,159 90.1,160.5L93.3,163.1L63.6,162.8C47.3,162.6 34,162.8 34,163.2C34,163.7 74.4,163.9 123.8,163.9C173.1,163.8 212.4,163.5 211.1,163.3C208.8,162.8 208.8,162.8 212,160.9C213.8,159.8 215.7,157.6 216.3,156C217,154.1 218.8,152.5 221.3,151.4L225.2,149.6L224.6,142C223.7,132.2 223.2,130.3 221.2,129.6C218,128.5 211.4,124.4 206.2,120.2C198.3,114 190.7,112 175.1,112C166.4,112 161.9,112.4 160.9,113.2L160.9,113.2ZM189.8,116.3C190.8,117.3 191.9,117.8 192.2,117.5C192.5,117.1 194.5,118 196.5,119.5C198.6,120.9 200.7,122 201.1,122C201.6,122 202,122.4 202,122.9C202,123.4 194.8,123.8 185.9,123.9L169.8,124.1L166.7,121C165,119.4 163,118 162.3,118C160.7,118 160.5,115.3 162.1,114.8C162.7,114.6 168.8,114.5 175.6,114.5C185.6,114.6 188.3,115 189.8,116.3L189.8,116.3ZM199.8,117.9C204,120 208,124 206,124C205.4,124 202.5,122.2 199.8,120C194.2,115.6 194.2,115 199.8,117.9L199.8,117.9ZM123,133.8C123,134 122.5,135.1 121.9,136.2C120.8,138.2 120.2,138.2 111.6,137.6C104.3,137.1 102,137.3 100.4,138.5C97.6,140.7 79.2,140.6 78.3,138.4C78,137.6 78.1,136.5 78.6,136C79.1,135.6 86.9,134.9 96,134.5C105.1,134.1 112.6,133.7 112.7,133.6C113,133.3 123,133.5 123,133.8L123,133.8ZM200.7,142C199.3,143.6 197.9,146.3 197.5,148C197.1,149.8 196.6,150.9 196.3,150.6C195.5,149.9 198,142.7 199.8,140.7C202.4,137.7 203.3,138.9 200.7,142L200.7,142ZM143.9,143.6C146.9,147.4 146.7,153 143.4,156.9C141.9,158.7 139.9,160 138.5,160C135.4,160 131,154.7 131,150.9C131,142.2 139.2,137.6 143.9,143.6L143.9,143.6ZM209.5,141.6C211.7,142.5 214,147.3 214,151C214,154.6 209.3,160 206.3,160C205.2,160 203.4,159 202.2,157.7C195.4,150.5 200.9,138.3 209.5,141.6L209.5,141.6ZM198,153.7C198.1,156.1 200.9,159.4 204.5,161.4L207.5,163L204.5,162.4C200.6,161.5 199,160.2 197.3,156.3C195.7,152.4 195.7,152 197,152C197.6,152 198,152.8 198,153.7L198,153.7ZM135.8,161C139.3,162.9 139.4,163 136.5,162.4C133.3,161.7 129,157.5 129,155C129.1,154.2 129.7,154.7 130.6,156.2C131.4,157.7 133.7,159.9 135.8,161L135.8,161ZM193.5,157C194.3,158.6 196.3,160.6 197.8,161.4C200.3,162.8 199.2,162.9 184,163L167.5,163L170.2,160.7C171.6,159.5 173.3,157.5 173.9,156.2C175,154.2 175.8,154 183.5,154C191.9,154 192,154 193.5,157L193.5,157ZM126.9,159L130.7,163L116.3,163L101.8,163L104.9,159.9C106.6,158.2 108,156.4 108,155.9C108,155.4 111.4,155 115.5,155C123,155 123.1,155 126.9,159L126.9,159ZM153.5,157C153.8,158.1 155.3,159.9 156.7,161L159.3,163L150.4,163C141.7,162.9 141.6,162.9 144.2,161.3C145.7,160.4 147.4,158.6 148.1,157.3C149.6,154.5 152.6,154.3 153.5,157L153.5,157ZM103.8,157.4C102.8,158.1 102,159.2 102,159.8C102,161 99.7,162 97,162C95.9,162 93.7,160.6 92,159L88.9,156L97.2,156C104.3,156.1 105.3,156.3 103.8,157.4L103.8,157.4ZM169.6,157.2C170.6,158.8 166.3,162 163,162C160,162 157.5,159.8 158.3,157.8C158.9,156.1 168.7,155.7 169.6,157.2L169.6,157.2Z" fill="#E0B76F"/>
<path d="M137,150C137,151.1 137.7,152 138.5,152C139.3,152 140,151.1 140,150C140,148.9 139.3,148 138.5,148C137.7,148 137,148.9 137,150L137,150Z" fill="#E0B76F"/>
<path d="M205.4,149.5C204.7,151.2 205.8,153.2 207.1,152.5C208.3,151.7 208.3,148 207,148C206.4,148 205.7,148.7 205.4,149.5L205.4,149.5Z" fill="#E0B76F"/>
<path d="M132.5,136C132.2,136.6 132.6,136.7 133.4,136.4C135.2,135.7 135.5,135 134.1,135C133.5,135 132.8,135.4 132.5,136L132.5,136Z" fill="#E0B76F"/>
<path d="M97,145.5C97,146.8 99.1,147 110.8,146.8L124.5,146.6L111.8,146.3C104.4,146.1 99,145.5 99,145C99,144.4 98.6,144 98,144C97.5,144 97,144.7 97,145.5L97,145.5Z" fill="#E0B76F"/>
<path d="M162.8,145.7C168.5,145.9 177.5,145.9 182.8,145.7C188.1,145.6 183.5,145.4 172.5,145.4C161.5,145.4 157.1,145.6 162.8,145.7L162.8,145.7Z" fill="#E0B76F"/>
<path d="M151.1,150C151.2,151.4 151.4,151.8 151.6,151C152,149.7 155.1,149.5 172.3,149.5C189.3,149.5 192.6,149.7 193.2,151C193.6,152 193.9,151.7 193.9,150L194,147.5L172.5,147.5L151,147.5L151.1,150L151.1,150Z" fill="#E0B76F"/>
<path d="M219.3,163.2C219.1,163.7 229.5,164 242.4,164C255.4,164 266,163.7 266,163.2C266,162.3 220,162.3 219.3,163.2L219.3,163.2Z" fill="#E0B76F"/>
</g>
</g>
</svg>
