<?xml version="1.0" standalone="no"?>
<!DOCTYPE svg PUBLIC "-//W3C//DTD SVG 20010904//EN"
 "http://www.w3.org/TR/2001/REC-SVG-20010904/DTD/svg10.dtd">
<svg version="1.0" xmlns="http://www.w3.org/2000/svg"
 width="626.000000pt" height="469.000000pt" viewBox="0 0 626.000000 469.000000"
 preserveAspectRatio="xMidYMid meet">
<metadata>
Created by potrace 1.16, written by Peter Selinger 2001-2019
</metadata>
<g transform="translate(0.000000,469.000000) scale(0.100000,-0.100000)"
fill="#000000" stroke="none">
<path d="M2725 2336 c-60 -28 -457 -244 -465 -253 -3 -3 175 -3 395 1 l400 6
108 108 c60 59 117 119 128 135 l20 27 -268 0 c-261 0 -269 -1 -318 -24z"/>
<path d="M3377 2347 c-15 -7 -66 -61 -113 -122 l-86 -110 51 -3 c36 -2 51 -7
51 -18 0 -10 -14 -14 -57 -14 -41 0 -54 -3 -46 -11 7 -7 197 -10 629 -9 340 0
620 3 623 5 8 9 -52 65 -144 134 -81 61 -104 73 -230 114 l-140 47 -255 0
c-176 -1 -264 -5 -283 -13z"/>
<path d="M4398 1948 c-3 -23 4 -22 -255 -30 -51 -2 -93 -6 -93 -9 0 -4 -12 -9
-26 -12 -17 -3 -24 -1 -20 8 4 10 -69 13 -357 13 -297 -1 -356 -3 -327 -13 35
-12 35 -12 -25 -12 -42 0 -52 3 -35 8 l25 7 -28 1 c-16 1 -38 -4 -49 -10 -16
-8 -19 -8 -13 1 6 10 -1 11 -26 6 -41 -8 -36 -8 -129 -4 -56 2 -74 0 -73 -9 2
-7 -2 -13 -7 -13 -6 0 -10 4 -10 9 0 5 -7 12 -16 15 -10 4 -13 2 -8 -6 4 -7 3
-8 -5 -4 -6 4 -9 16 -6 27 4 11 2 19 -4 19 -6 0 -11 -5 -11 -11 0 -8 -4 -8
-13 0 -16 13 -109 11 -119 -3 -4 -6 -12 -5 -21 2 -8 7 -21 10 -28 8 -8 -2 -33
-7 -56 -10 -36 -5 -43 -3 -43 10 0 15 -13 16 -127 11 -71 -4 -288 -12 -483
-18 -218 -7 -364 -16 -379 -23 -28 -13 -60 -69 -66 -115 -3 -30 9 -44 17 -19
3 9 6 9 12 0 4 -7 2 -12 -3 -12 -6 0 -11 -5 -11 -12 0 -6 3 -8 7 -5 3 4 12 2
19 -4 10 -8 11 -16 3 -30 -12 -23 -29 -25 -29 -4 0 8 3 14 8 13 4 -2 8 2 10 7
1 6 -1 10 -5 10 -5 0 -14 4 -20 8 -10 6 -13 -5 -13 -45 0 -61 10 -81 36 -76
14 2 19 14 22 43 1 21 4 41 7 43 7 8 453 7 448 0 -2 -5 -13 -8 -24 -8 -15 0
-19 -7 -19 -34 0 -19 5 -38 12 -42 7 -5 9 -2 5 9 -4 11 -2 14 9 10 10 -4 14 3
15 23 2 25 2 26 6 6 3 -13 -1 -30 -7 -38 -11 -12 20 -14 233 -14 140 0 257 4
272 10 24 9 26 8 19 -12 -4 -13 -8 -32 -9 -43 -2 -20 -11 -20 -459 -25 -251
-3 -461 -1 -465 3 -5 5 -21 7 -37 5 -25 -3 -29 -7 -27 -31 2 -25 0 -27 -13
-16 -10 8 -12 15 -6 17 11 3 5 32 -7 32 -15 0 -11 -64 5 -81 15 -16 32 -19
121 -19 l103 0 11 -27 c15 -41 57 -92 93 -114 31 -19 26 -19 -575 -19 -530 0
-608 -2 -613 -15 -5 -13 206 -15 1859 -15 1651 0 1865 2 1865 15 0 10 -10 15
-32 15 l-33 0 30 18 c46 28 102 96 116 139 10 34 19 42 89 74 l77 37 7 77 c6
61 4 82 -8 101 -11 15 -16 47 -16 94 0 43 -6 82 -15 100 l-15 28 -119 1 c-116
1 -120 0 -123 -21z m-71 -35 c-4 -3 -2 -11 3 -18 7 -8 5 -12 -5 -12 -8 0 -12
4 -9 9 3 4 -11 8 -30 8 -40 0 -49 -17 -13 -25 31 -7 70 -3 85 9 11 8 10 11 -5
17 -16 7 -15 8 5 8 13 1 22 -5 22 -14 0 -8 9 -15 20 -15 11 0 20 -4 20 -10 0
-6 -9 -6 -26 1 -33 12 -43 5 -15 -11 12 -6 21 -8 21 -5 0 7 19 -9 57 -45 14
-14 22 -19 19 -12 -9 15 -1 15 25 1 11 -5 17 -14 14 -19 -3 -5 3 -14 12 -20
17 -11 17 -11 1 -6 -10 3 -18 1 -18 -4 0 -6 5 -10 10 -10 6 0 10 -10 10 -22 0
-18 2 -20 9 -8 6 8 7 19 4 25 -4 5 -2 7 2 2 11 -9 13 -57 3 -51 -14 9 -9 -13
6 -25 9 -8 12 -25 8 -58 -3 -29 -1 -44 5 -40 5 3 10 0 10 -8 0 -8 -4 -12 -8
-10 -4 3 -9 -2 -13 -10 -13 -34 -24 -11 -28 59 -4 58 -11 86 -35 127 -33 60
-102 114 -159 125 -130 24 -253 -97 -262 -257 -6 -93 -22 -88 -22 6 0 56 5 86
20 114 10 21 16 42 12 46 -4 5 -1 5 6 1 6 -4 12 -3 12 3 0 11 75 93 84 92 20
-3 26 1 26 16 0 13 -3 14 -11 6 -9 -9 -15 -8 -25 2 -27 27 -14 34 69 38 45 1
84 4 86 5 2 1 1 -1 -2 -5z m-1442 -29 c-19 -15 -18 -16 21 -11 24 3 55 -1 74
-10 19 -7 40 -11 47 -9 7 3 12 2 12 -2 -4 -25 5 -39 30 -49 20 -7 33 -7 39 -1
7 7 9 5 7 -8 -2 -11 -4 -21 -4 -23 -1 -3 -6 0 -13 7 -17 17 -33 15 -18 -3 7
-8 19 -15 28 -15 8 0 13 -3 9 -6 -5 -5 29 -110 40 -124 2 -2 8 1 12 8 6 10
106 13 428 15 232 1 419 -1 416 -5 -2 -5 4 -8 14 -9 14 0 14 -2 -4 -9 -13 -5
-23 -14 -23 -20 0 -7 -133 -10 -405 -10 l-405 0 0 25 0 25 -20 -20 c-11 -11
-20 -31 -20 -44 0 -36 -12 -86 -20 -86 -4 0 -7 33 -7 74 0 90 -32 167 -94 219
-87 75 -190 74 -274 -4 -63 -58 -88 -117 -90 -213 -1 -60 -5 -80 -16 -81 -16
-3 -18 58 -4 157 6 45 4 61 -9 80 -9 12 -16 17 -16 10 0 -6 -5 -12 -12 -12 -9
0 -9 3 0 12 7 7 11 26 11 42 -1 17 -3 23 -6 14 -2 -10 -9 -18 -14 -18 -13 0
-11 16 4 32 8 7 16 20 20 28 3 8 6 -7 6 -35 1 -35 8 -58 22 -75 11 -14 18 -20
15 -13 -4 7 3 22 14 33 14 14 19 28 15 43 -5 16 -4 18 3 8 8 -12 18 -7 53 22
23 20 46 34 52 30 5 -3 7 4 3 18 -6 20 -5 21 4 7 10 -17 13 -16 48 2 44 24 54
25 27 4z m59 -138 c38 -16 78 -64 95 -115 32 -97 -9 -215 -91 -257 -87 -45
-193 28 -212 147 -14 87 37 194 108 225 40 17 59 17 100 0z m1453 -28 c65 -59
83 -186 40 -269 -85 -161 -277 -87 -277 105 1 130 81 217 178 195 19 -4 45
-18 59 -31z m-378 -271 c15 -45 66 -104 109 -127 l37 -19 -329 -1 -330 0 33
24 c37 28 74 74 91 116 14 33 23 34 257 38 l121 2 11 -33z m-1406 -37 c18 -34
43 -61 74 -80 l47 -30 -305 0 -304 0 30 20 c35 23 58 51 86 103 l19 37 163 0
162 0 28 -50z m589 3 c13 -26 43 -62 67 -80 l43 -33 -173 0 -173 0 47 30 c31
19 56 46 74 80 24 43 32 50 59 50 27 0 34 -6 56 -47z"/>
<path d="M4580 1285 c0 -13 60 -15 480 -15 420 0 480 2 480 15 0 13 -60 15
-480 15 -420 0 -480 -2 -480 -15z"/>
</g>
</svg>
